<?xml version="1.0" encoding="UTF-8"?>
<svg id="Layer_1" xmlns="http://www.w3.org/2000/svg" version="1.1" viewBox="0 0 1188 297">
  <!-- Generator: Adobe Illustrator 30.1.0, SVG Export Plug-In . SVG Version: 2.1.1 Build 136)  -->
  <defs>
    <style>
      .st0 {
        fill: #fff;
      }
    </style>
  </defs>
  <path class="st0" d="M910.59,232.87c-1.75-1.75-1.21-4.06-.19-5.74l11.49-18.92c-3.41-6.68-5.66-12.25-8-18.84l-22.36-5.53c-1.3-.32-2.85-2.41-2.85-3.76v-37.67c0-.97,1.57-3.12,2.52-3.35l22.74-5.58c2.28-6.9,4.56-12.51,7.91-19.09l-11.84-19.52c-.77-1.28-.76-3.74.37-4.87l27.16-27.13c.75-.75,3.56-.4,4.47.16l19.36,11.74c6.36-3.14,12.27-5.6,19.03-7.84l5.52-22.52c.24-.96,2.14-2.74,3.23-2.74l37.69-.03c1.91,0,4.13,1.55,4.13,3.63l.02,50.01c0,.99-.7,2.79-1.34,3.31-.75.61-2.84.96-3.92.68-11.95-3.13-23.96-3.14-35.8.29-34.43,9.97-53.79,45.99-43.87,79.83,9.98,34.01,45.31,53.64,80,43.92,2.27-.64,4.89,1.03,4.9,3.47l.04,49.98c0,1.97-1.5,4.3-3.55,4.3l-37.5.05c-1.33,0-3.62-1.24-3.93-2.48l-5.64-22.8-19.02-7.85-19.92,11.96c-.96.58-3.66.16-4.46-.65l-26.39-26.41h0Z"/>
  <path class="st0" d="M187.96,202.52l-.8-95.55-28.81,95.34-12.89.15-27.41-98.74-.91,98.59c-5.97.23-12.03.22-18.08-.05l.02-126.13,24.75.07,27.87,92.15,29.98-92.11h23.78v126.16l-17.5.1v.02Z"/>
  <path class="st0" d="M797.12,164.38l17.6,38.11-20.31-.03-16.19-35.6-16.84.1-.03,35.56-19.05-.05v-126.29l42.14.05c7.2,0,13.75,2.43,19.25,6.6,7.22,6.52,10.99,15.36,11,25.2l.02,26.99c0,7.16-1.79,14.33-5.4,20.35-2.63,4.39-6.75,6.59-12.19,9.02h0ZM795.31,133.4c.51-8.3.71-16.22-.16-23.98s-7.14-13.72-14.96-13.79l-18.82-.17.02,52.61c12.38-.24,32.85,3.09,33.93-14.68h-.01Z"/>
  <circle class="st0" cx="1008.32" cy="161.35" r="42.31"/>
  <polygon class="st0" points="522.91 202.31 500.27 202.51 477.34 136.47 461.92 157.46 461.87 202.51 442.8 202.47 442.8 76.2 461.84 76.15 462.11 127.65 499.9 76.33 519.8 76.66 489.51 118.85 522.91 202.31"/>
  <path class="st0" d="M342.08,172.86h-35.48l-7.92,29.58-18.86-.02,33.63-126.17,21.74-.15,33.87,126.22-18.83.2-8.15-29.66h0ZM337.78,155.3l-13.68-47.96-12.76,48.09,26.44-.14h0Z"/>
  <polygon class="st0" points="653.35 147.13 617.43 147.22 617.41 184.84 663.05 184.94 663.04 202.5 598.15 202.5 598.15 76.15 663.03 76.15 663.05 93.91 617.43 93.95 617.42 129.13 653.34 129.22 653.35 147.13"/>
  <path class="st0" d="M1074.29,234.71c7.19,2.52,11.63,8.88,10.81,16.12-.83,7.32-6.89,12.66-13.87,12.96-7.56.33-13.71-4.92-15-11.75-1.43-7.52,2.51-14.66,10.52-17.02l.09-33.31-28.12-.23,7.32-7.28,24.25-.18c2.21-.02,4.03,1.77,4.03,3.92l-.03,36.77h0Z"/>
  <path class="st0" d="M1046.11,128.51l-7.61-7.32,28.28-.08.03-33.37c-7.61-2.23-11.56-8.88-10.73-16.09s6.98-12.73,14.48-12.74,13.46,5.17,14.49,12.74c.96,7.01-3.26,13.93-10.72,16.13l-.02,36.79c0,2.15-1.78,4.11-4.01,4.1l-24.2-.14v-.02Z"/>
  <path class="st0" d="M1058.79,165.19c-.59-2.18-.61-4.87-.46-7.49l41.72-.04c2.33-7.62,8.85-11.87,16.27-10.8,7.01,1.01,12.57,7,12.57,14.66,0,7.11-5.11,13.39-12.87,14.37-6.83.86-13.79-3.09-15.9-10.7h-41.33Z"/>
  <path class="st0" d="M137.94,223.18l6.27-.06-10.97,40.8c-1.94.31-4.43.34-6.32.11l-5.46-18.94-7.15,18.87c-1.75.28-4.2.28-6.26,0l-10.79-40.73,6.22-.15,8.26,30.72,6.84-20.01-2.78-10.73,6.73.05,7.12,30,8.29-29.95v.02Z"/>
  <path class="st0" d="M727.44,223.18l6.27-.06-10.97,40.8c-1.94.31-4.43.34-6.32.11l-5.46-18.94-7.15,18.87c-1.75.28-4.2.28-6.26,0l-10.79-40.73,6.22-.15,8.26,30.72,6.84-20.01-2.78-10.73,6.73.05,7.12,30,8.29-29.95v.02Z"/>
  <path class="st0" d="M220.38,264.23c-3.89.83-7.9.78-11.41.17-5.06-.89-7.88-4.69-8.67-9.57l.1-22.29c.02-3.97,2.71-7.96,6.41-9.07,4.58-1.37,9.46-1.4,14.02-.19,4.15,1.1,7.21,4.82,7.22,9.22l.02,21.79c0,4.59-2.95,8.92-7.7,9.94h0ZM214.7,258.47c3.7-.16,6.87-2.16,6.99-6.05.17-5.71.18-11.62,0-17.32-.13-4.12-3.54-6.2-7.17-6.33-4.2-.16-7.71,2.24-7.7,6.8l.03,16.41c0,4.44,3.64,6.69,7.86,6.5h-.01Z"/>
  <path class="st0" d="M623.13,264.23c-3.89.83-7.9.78-11.41.17-5.06-.89-7.88-4.69-8.67-9.57l.1-22.29c.02-3.97,2.71-7.96,6.41-9.07,4.58-1.37,9.46-1.4,14.02-.19,4.15,1.1,7.21,4.82,7.22,9.22l.02,21.79c0,4.59-2.95,8.92-7.7,9.94h.01ZM617.45,258.47c3.7-.16,6.87-2.16,6.99-6.05.17-5.71.18-11.62,0-17.32-.13-4.12-3.54-6.2-7.17-6.33-4.2-.16-7.71,2.24-7.7,6.8l.03,16.41c0,4.44,3.65,6.69,7.86,6.5h-.01Z"/>
  <path class="st0" d="M309.75,264.09l-6.6.03-5.05-11.16-5.58-.34-.04,11.63-6.28-.18v-41l13.79-.06c4.94-.02,9.43,3.74,9.74,8.79.45,7.12,1.6,17.35-5.44,20.13l5.46,12.15h0ZM302.09,244.73c2.48-3.79,2.5-10.61-.25-13.89-2.02-2.21-6.34-1.49-9.34-1.34l.08,16.81c3.03.07,7.48.88,9.52-1.59h0Z"/>
  <path class="st0" d="M393.83,263.82c-2.54.49-4.95.49-7.38.17l-7.34-20.9c-7.9,8.08-4.15,9.22-5.13,21.08l-6.24-.11.02-40.92h6.22l.25,16.4,12.19-16.48,6.36.21-9.69,13.72,10.73,26.83h.01Z"/>
  <path class="st0" d="M813.71,247.9c2.21,4.73.59,11.59-3.63,14.52-6.87,4.75-16.75,2.78-21.1-4.45,1.17-1.8,3.26-3.57,4.94-4.62,2.24,3.09,4.32,5.11,7.74,5.12,2.64,0,5.08-1.91,5.66-4.19,2.51-9.83-20.72-7.26-19.08-22.1.42-3.8,3.57-7.12,7.55-8.64,6.94-2.65,14.38-.64,17.15,6.55l-4.8,3.17c-2.92-4.01-6.2-5.63-10.59-3.86-.97.39-2.3,1.9-2.52,2.86-.25,1.09.88,3.69,1.95,4.22l7.53,3.73c3.44,1.71,7.35,3.69,9.22,7.68h-.02Z"/>
  <path class="st0" d="M1097.35,204.01l-14.01-19.28-31.01-.11,3.35-7.44,31.41.04,16.48,22.69c.9,1.23-.15,4.32-1.29,4.94-1.23.68-4,.43-4.93-.84h0Z"/>
  <path class="st0" d="M1055.93,145.59l-3.68-7.51,30.99-.1,14.51-19.72c.74-1.01,4.21-.78,5.12.06s1.36,3.53.52,4.69l-16.23,22.4-31.24.17h.01Z"/>
  <polygon class="st0" points="468.15 240.31 468.22 246.17 456.68 246.28 456.59 264.15 450.24 264.04 450.25 223.02 471.25 222.95 471.55 228.74 456.65 228.86 456.64 240.19 468.15 240.31"/>
  <path class="st0" d="M547.94,258.41c.09,1.72.06,4.19-.08,5.88l-20.91-.04-.02-41.01,6.29-.2.03,35.23,14.68.14h.01Z"/>
</svg>